<svg width="28" height="28" fill="none" xmlns="http://www.w3.org/2000/svg"><g clip-path="url(#a)"><path d="M14 28c7.732 0 14-6.268 14-14C28 6.27 21.732.002 14 .002 6.27.001.001 6.27.001 14.001c0 7.731 6.268 13.999 14 13.999Z" fill="#fff"/><path d="M27.2 9.332h-8.626a38.71 38.71 0 0 1 .007 9.28h8.637A13.97 13.97 0 0 0 28 14c0-1.637-.284-3.208-.8-4.668Z" fill="#EFECEC"/><path d="M18.574 9.332H27.2a.091.091 0 0 0-.004-.012C25.404 4.268 20.796.55 15.258.057c2.143 1.175 2.768 4.897 3.316 9.275Z" fill="#C42B27"/><path d="M15.258 27.942c5.547-.494 10.163-4.224 11.948-9.29l.013-.04h-8.637c-.544 4.403-1.172 8.15-3.324 9.33Z" fill="#0B0B0B"/><path d="M0 14c0 1.617.278 3.168.781 4.613h18.521c.37-2.995.367-6.29-.007-9.28H.8A13.97 13.97 0 0 0 0 14Z" fill="#EFEFEF"/><path d="M.804 9.32a.197.197 0 0 1-.004.012h18.495c-.548-4.378-1.895-8.1-4.038-9.274A14.24 14.24 0 0 0 14 0C7.91 0 2.73 3.89.804 9.32Z" fill="#CC3434"/><path d="M19.302 18.613H.782l.013.04C2.713 24.096 7.9 28 14 28c.424 0 .843-.02 1.257-.058 2.152-1.18 3.501-4.927 4.045-9.33Z" fill="#151515"/><path d="M16.732 17.257c-.169-.046-.42-.009-.623-.02-.038.022-.033.088-.05.132.02.041.06.019.102.051.064.061.107.144.204.174-.083.087-.081.26-.204.306.02.201-.11.236-.307.276-.942.188-2.408.207-3.41.071-.125-.016-.49-.07-.583-.153-.036-.033-.059-.082-.05-.174-.119-.059-.12-.234-.215-.316.133-.045.158-.196.307-.225.004-.062-.023-.094-.031-.143-.21.012-.466-.023-.643.02.016-.228.021-.487.04-.755.027-.358.023-.777.051-1.133.015-.182.01-.37.021-.552.022-.345.006-.687.031-1.01.026-.35.014-.722.04-1.052.028-.342.122-.615.521-.582.474.039.77.435 1.287.438.24-.148.414-.723.347-1.153-.03-.2-.242-.487-.45-.378-.03-.336.29-.29.5-.184.065-.04.084-.097.154-.112.173-.039.396.04.48.092.161.098.236.316.235.592 0 .143-.032.285-.02.429.025.305.129.552.255.705.48.043.832-.383 1.296-.43.198-.019.363.055.45.184.132.49.09 1.033.133 1.583.025.33.01.675.03 1.011.046.761.07 1.525.102 2.308Zm-2.297-5.34c-.021-.278.056-.575-.041-.828-.045-.043-.072-.106-.133-.133h-.153c-.076.042-.104.126-.184.143-.188.04-.204-.139-.347-.194-.037-.014-.087-.006-.133-.02-.137-.042-.218-.091-.286.102.25-.015.474.066.531.276-.142-.04-.102.088-.092.173.053.42-.04.76-.183.99-.068.11-.155.197-.205.297.149-.028.283-.02.358-.113.1-.125.078-.391.143-.541-.006.317-.096.55-.245.725.364-.052.427-.355.46-.725a.964.964 0 0 1-.083.51c.047.06.074.138.143.174.058-.047.1-.11.133-.184-.053-.12-.116-.339-.061-.5-.005.393.103.674.44.725-.136-.171-.267-.455-.226-.735.012.22.065.398.133.561.094.06.212.095.358.103a1.42 1.42 0 0 1-.327-.807Zm-.643-.93v.04c.024-.003.022.02.05.011.01-.012.014-.027.01-.05-.012-.015-.047-.015-.06-.001Zm-1.971 1.215c-.226.018-.348.206-.347.43.099-.035.193-.127.296-.124-.055 1.537-.123 2.935-.184 4.453-.089.083-.202.144-.265.255h.551c.029-.244.303-.294.531-.225.108-.375.218-.748.317-1.134-.101.063-.153.174-.256.235.037-.982.087-1.938.123-2.94.158.122.414.13.664.092.3-.046.558-.212.745-.327.196.174.555.32.92.347.226.017.33-.057.469-.092.021 1 .093 1.98.112 2.93-.083-.076-.152-.168-.245-.235.09.387.208.746.307 1.124.237-.075.5-.01.54.225.18-.007.389.013.552-.01-.064-.115-.223-.147-.265-.266-.048-.134-.013-.338-.02-.511-.057-1.235-.135-2.693-.164-3.93.115.027.189.096.296.132-.023-.246-.125-.414-.357-.429-.529-.035-.834.45-1.368.44 0 .064.104.078.091.122-.102-.008-.253-.015-.357-.051-.01.056.093.082.102.153a.911.911 0 0 1-.48-.235c-.047.068-.09.141-.153.194-.054-.061-.087-.145-.153-.194a.665.665 0 0 1-.47.225c.03-.052.092-.072.102-.143a.926.926 0 0 1-.357.041c.032-.037.085-.05.092-.113-.508.014-.861-.478-1.37-.439Zm.99 1.103c.02 1.12.447 1.922 1.184 2.359.703-.462 1.149-1.234 1.155-2.359-.36-.004-.614-.057-.838-.153-.125-.054-.246-.153-.347-.184-.277.22-.657.337-1.154.337Zm.02.745c-.009.496-.088 1.102-.05 1.614.104-.276.075-.626.092-.99.011-.245.061-.492-.031-.654a.048.048 0 0 1-.01.03Zm2.268.92c0 .274.013.542.102.704.01-.543-.058-1.108-.061-1.644-.014 0-.014-.013-.03-.01-.072.27-.011.617-.011.95Zm-2.104.582c.088-.1.186-.189.266-.297-.014-.221-.067-.402-.184-.52-.032.262-.284.6-.082.817Zm1.716-.287c.095.089.178.244.285.287.153-.249-.067-.515-.091-.797-.014 0-.015-.014-.031-.01-.102.126-.161.294-.164.52Zm-1.369.46c.094-.1.176-.213.255-.327-.127-.1-.219-.236-.336-.347.026.225.04.462.081.674Zm1.032-.317c.089.105.152.236.265.317.02-.22.038-.445.071-.653 0-.013-.003-.025-.02-.021-.094.13-.207.242-.316.357Zm-1.41.204c-.012-.065-.047-.109-.06-.173-.089.118-.1.293-.144.45-.016.056-.055.103-.05.163.116-.05.164-.169.285-.215.022.101.072.173.102.266.095-.046.09-.19.174-.245.046.164.095.327.153.48.109-.092.233-.17.266-.338-.062-.139-.118-.284-.174-.428-.083.057-.136.198-.204.235-.019-.169-.008-.367-.072-.49-.084.106-.17.21-.276.295Zm1.695.205c-.074-.076-.125-.174-.204-.245-.03.067-.064.133-.092.204-.028.071-.078.16-.081.225-.008.16.169.235.265.337.045-.16.065-.344.133-.48.063.08.092.194.184.245.047-.086.08-.186.122-.276.088.076.168.16.266.225-.045-.184-.1-.444-.184-.623a.806.806 0 0 1-.082.184c-.095-.092-.167-.208-.276-.286-.03.15-.043.318-.05.49Zm-1.041-.388c-.165.118.018.357.082.49.029-.117.056-.237.081-.357a3.8 3.8 0 0 1-.163-.133Zm.572.143c.03.115.032.26.092.347.057-.12.099-.255.152-.378-.028-.042-.047-.096-.101-.112-.025.07-.115.076-.143.143Zm-1.236.306c-.08.083-.157.17-.265.225-.071.206.076.38.143.54.092-.067.132-.187.225-.254.037.12.062.25.122.347.1-.07.158-.237.255-.276.023.11.021.245.082.317.036-.195.083-.38.122-.572-.082.017-.142.143-.224.194-.057-.148-.094-.315-.153-.46-.08.056-.092.182-.164.245-.041-.108-.07-.228-.143-.306Zm1.9.306c-.059-.084-.093-.192-.184-.245-.037.154-.079.303-.112.46-.085-.049-.143-.178-.225-.194.04.2.064.419.142.582.017-.12.037-.235.072-.337.092.089.14.22.255.286.032-.121.076-.23.112-.347.087.074.128.192.226.255.056-.164.2-.317.142-.53-.106-.068-.185-.162-.286-.236-.06.09-.08.218-.143.306Zm-1.113.807c-.053.03-.09.074-.143.102-.022-.025-.085-.108-.102-.071-.014.04-.016.093-.031.133.097.009.29-.029.337.06.138-.018.25.027.357 0 .04-.01.072-.053.112-.06.076-.015.15.013.225 0-.014-.045-.003-.113-.03-.143-.068-.003-.056.073-.123.071-.035-.047-.098-.066-.133-.112-.039-.284-.064-.584-.122-.848-.023.282.041.564.03.868-.055.047-.081.123-.143.164-.023-.069-.116-.104-.133-.194-.044-.25.093-.637.031-.838-.057.276-.07.597-.132.868Zm-1.307.01a.252.252 0 0 0 .173.041c.067-.079.113-.18.194-.245.036.11.074.22.123.317h.071c.056-.067.086-.16.143-.225.036.08.053.179.092.255.046.019.122.008.184.01.103-.174.063-.452-.01-.632-.094.083-.15.205-.246.286-.041-.119-.056-.264-.133-.347-.07.08-.135.17-.204.255-.072-.129-.092-.31-.194-.409-.055.24-.124.468-.194.694Zm2.706-.286c-.071-.086-.122-.192-.215-.255-.06.1-.07.251-.133.347-.079-.088-.15-.237-.245-.275-.047.208-.109.448.01.622.059-.002.13.008.174-.01.047-.072.055-.183.102-.255.043.076.09.149.133.225h.081c.046-.108.078-.23.133-.327.056.098.122.184.194.265.057-.014.13-.014.153-.061-.069-.22-.126-.452-.193-.674h-.031a4.908 4.908 0 0 1-.163.398Zm-2.502.348c.086.01.15.04.245.04-.032-.087-.048-.19-.112-.244-.035.077-.107.118-.133.204Zm2.45.04c.059.005.157-.032.235-.04-.007-.062-.087-.137-.132-.194-.065.048-.078.147-.103.234Zm-2.052.021c.033.02.104.006.153.01-.02-.059-.016-.14-.071-.163-.03.048-.066.09-.082.153Zm1.746.01h.143c-.014-.075-.039-.138-.102-.163-.003.06-.055.118-.04.163Zm.99-.143c-.238.052-.548.143-.847.174-.23.024-.435.03-.654.02-.06.065-.028.14.01.204.208.032.442.017.644-.01-.011-.217.246-.27.276-.04.22-.05.467-.071.643-.164.002-.086.001-.172-.071-.184Zm-2.92.153c-.175-.025-.411-.108-.572-.142-.09-.02-.118-.004-.152.04v.143c.188.078.418.112.643.154.019-.23.278-.188.265.04.222.027.416.042.644.01.045-.071.075-.124.02-.204a4.705 4.705 0 0 1-.848-.04Zm-.929.123a.426.426 0 0 0 .174-.092c-.005-.05.01-.12-.01-.153a.19.19 0 0 0-.164.245Zm3.952-.082a.482.482 0 0 0 .173.082c.024-.12-.049-.23-.163-.245-.021.036-.006.11-.01.163Zm-2.972.276c.022-.026.054-.042.082-.062.007-.082-.003-.146-.04-.183-.18-.025-.174.225-.042.245Zm2.073-.072c.015.036.062.044.102.072.042-.023.062-.068.092-.102-.005-.224-.262-.133-.194.03Zm-2.226-.02c-.272-.009-.546-.2-.786-.081-.008.05-.045.07-.031.142-.115-.012-.248.141-.255.194-.016.116.1.2.163.276a.251.251 0 0 0 .03.163c.865.286 2.293.292 3.36.174.314-.035.813-.067.899-.245v-.123c.113-.03.131-.154.163-.265-.09-.06-.121-.178-.265-.184.028-.041-.02-.078-.02-.123-.128-.108-.28-.029-.46.01-.248.054-.41.055-.47.236-.026-.063-.087-.091-.133-.133-.195.028-.452.049-.653.01-.053.083-.17.102-.184.225-.029-.077-.077-.134-.072-.246h-.102a.553.553 0 0 1-.082.246c-.008-.125-.13-.136-.173-.225-.197.046-.48.004-.654 0-.07.022-.1.083-.152.123-.008-.091-.082-.116-.123-.174Zm1.113-.123c.013.053.048.082.072.123.124.026.135-.061.173-.123a.613.613 0 0 0-.245 0Zm-.143.174c.044.045.087.09.153.112.04-.105.012-.262-.102-.275.01.08-.06.083-.051.163Zm.44-.163c-.064.045-.144.215-.042.275.039-.05.108-.068.133-.133-.043-.035-.033-.123-.092-.142Z" fill="#EEBC31"/><path d="M11.995 16.542c-.11.097-.24.23-.347.296.048-1.394.137-2.826.183-4.268.106.048.221.173.317.265-.044 1.247-.102 2.39-.153 3.707ZM16.324 16.828c-.058.011-.115-.084-.173-.133-.067-.055-.144-.1-.184-.163-.065-1.052-.05-2.162-.133-3.165-.013-.156-.044-.428-.02-.522.031-.124.242-.171.306-.285.078 1.28.131 2.888.204 4.268ZM12.24 12.907c.097.055.168.137.255.204-.025.821-.077 1.804-.113 2.624-.005.12.03.31-.01.419-.043.119-.21.183-.286.286.045-1.19.114-2.368.153-3.533ZM15.875 16.42c-.014.013-.042-.022-.062-.042-.06-.06-.144-.151-.204-.214-.052-.999-.09-2.04-.132-3.033.057-.092.155-.144.234-.214.06 1.074.112 2.35.164 3.502ZM15.057 13.356c-.015 1.046-.425 1.788-1.072 2.236-.661-.455-1.048-1.184-1.113-2.236.467-.003.864-.13 1.113-.316.252.21.626.299 1.072.316Zm-1.44-.072c-.018.418-.01.981-.01 1.44 0 .168-.034.365 0 .49.019.066.12.127.174.174.07.061.127.117.194.153.1-.078.343-.197.378-.327.033-.123 0-.313 0-.48v-1.45c-.133-.065-.257-.137-.388-.204-.094.09-.247.121-.348.204ZM12.209 17.052c.064.022.165.006.174.082-.054.02-.098-.05-.174-.04v-.042ZM15.762 17.073c-.044.037-.115.047-.173.071-.002-.071.137-.106.173-.071ZM12.516 17.155c.086.01.168.022.214.07-.067.004-.2-.013-.214-.07ZM15.457 17.165c-.03.036-.155.07-.226.06.048-.04.151-.08.226-.06ZM14.895 17.297a.509.509 0 0 1-.225 0c.018-.069.202-.063.225 0ZM13.322 17.267c-.02.075-.163.027-.245.04.007-.091.177-.04.245-.04ZM13.628 17.288a.388.388 0 0 1-.215.03c.02-.055.156-.05.215-.03ZM14.548 17.328c-.079-.004-.144-.02-.215-.03.038-.037.215-.04.215.03ZM15.957 17.716c.046 0 .02-.074.07-.071-.006.03.011.037.01.061-.058.032-.11.047-.183.02-.08.043-.18.19-.285.082-.074.012-.063.107-.123.133-.082-.064-.152-.033-.276-.02-.037.04-.04.116-.112.122.004-.047.06-.042.06-.092-.01-.033-.069-.019-.091-.04-.02-.085.046-.084.072-.124.046.012.05.065.06.113.039 0 .065-.01.093-.02a.242.242 0 0 1 .07-.133c0-.057-.036-.134-.03-.164.059.014.03.113.061.153.079-.007.126.018.143.072.08-.03.103-.123.204-.123.045 0 .069.04.113.031.012-.136-.024-.414-.194-.307.008-.053.083-.04.143-.04.107.073.004.357.195.347Zm-.358.082c.047.042.165.02.153-.061-.029-.052-.173-.03-.153.061Zm-.204.05c.023-.006.052-.008.071-.02 0-.116-.163-.058-.071.02Zm-.092.032c.025.001.032-.016.05-.021 0-.033.005-.072-.03-.071-.018.018-.048.059-.02.091Zm-.245.02c.031.015.046.005.071-.01 0-.024-.017-.03-.01-.061-.042.002-.069.018-.061.071Zm.347 0c.032.027.075-.001.072-.041-.032.006-.072.002-.072.041ZM12.25 17.42v.051c-.015.016-.053.009-.082.01-.008-.036-.001-.025-.01-.06.028-.026.06-.02.092 0ZM12.23 17.543c.001.018-.013.021-.01.04-.042.001-.08-.001-.082-.04.017-.016.075-.016.092 0ZM14.374 17.625h.04c.015.014.015.066 0 .081h-.04c-.015-.015-.015-.067 0-.081ZM13.25 17.645c.032.133.055.42-.06.439-.116.018-.083-.156-.195-.164-.068.025-.152.054-.224.02-.051.004-.043.067-.092.072.065-.067.038-.154.03-.235.055.007.063.06.062.123.03.062.152.02.194 0-.022-.043-.05-.08-.072-.123.063-.016.063-.074.123-.07.1.004.124.158.02.203.067.025.075.11.133.143.135-.029.036-.29.081-.409Zm-.306.163c-.001.039.034.061.072.082.172-.078-.065-.246-.072-.082ZM13.384 17.645c.033.07-.012.231-.021.326-.03-.067.006-.236.02-.326ZM14.516 17.645c.069.067-.012.284.072.336.07-.02.117-.011.133-.071.014-.053-.06-.085-.02-.123.09.005.03.133.02.184a.7.7 0 0 1-.307.02c.006-.052.06-.055.102-.071.039-.088-.022-.204 0-.276ZM14.455 17.767c.007.06-.123.026-.081-.01.014-.014.08-.02.081.01ZM14.833 18.104c.014-.055.048-.088.072-.133-.029-.057-.141-.11-.062-.184.157.024.083.28-.01.317Zm.01-.266c.005.04.021.068.062.072.024-.03-.022-.106-.062-.072ZM15.966 17.828c0 .06-.073.04-.102.02.016-.056.068-.04.102-.02ZM13.669 17.818c.093.066.265.1.388.051.03.029.026.09.051.123.012-.012.036-.012.061-.01-.021-.122.148-.152.143-.02-.031.057-.123.053-.215.05-.041.023-.041.088-.081.112-.046-.016-.083-.04-.092-.091-.142-.03-.16-.012-.327-.02-.041.048-.08.148-.143.142.03-.052.088-.075.102-.143-.019-.038-.09-.069-.05-.133.097-.016.05.114.132.113.087-.036.02-.117.031-.174Zm.03.174c.056 0 .15.002.225.01.032.026.036.08.082.092.033-.044.091-.128.041-.194-.113.093-.358-.12-.347.092Zm.51-.01c.054.009.073-.017.072-.062-.038-.052-.107.008-.071.061ZM12.179 17.87c.032-.01.031.015.05.02.002.031-.012.049-.02.071-.059-.008-.059-.06-.03-.092ZM12.352 17.91c.043.071-.061.109-.092.051.004-.043.036-.06.092-.05ZM12.506 17.992c-.01 0-.009.012-.01.02h-.072a.047.047 0 0 1 .082-.02ZM14.506 18.053c.055.001.048.088.01.102-.04-.005-.038-.084-.01-.102ZM14.65 18.155c-.03-.01-.061-.021-.072-.05.031-.098.156-.01.071.05Z" fill="#EEBC31"/><path d="M12.301 17.42h.031c.003.141-.21.381.03.398.04-.025.018-.111.072-.122.006.053-.02.074-.03.112.046.13.281.056.183-.092.115.002.025.124.01.174-.066.031-.161-.002-.214-.041-.114-.01-.214-.032-.225-.143.102-.041.125-.162.143-.286Z" fill="#EEBC31"/></g><defs><clipPath id="a"><path fill="#fff" d="M0 0h28v28H0z"/></clipPath></defs></svg>