<svg width="28" height="28" fill="none" xmlns="http://www.w3.org/2000/svg"><g clip-path="url(#a)"><path d="M14.001 28c7.732 0 14-6.268 14-14C28 6.27 21.732.003 14 .003 6.27.002.002 6.269.002 14 .002 21.732 6.27 28 14.002 28Z" fill="#fff"/><path d="M27.2 9.332a.109.109 0 0 0-.004-.012C25.404 4.268 20.796.55 15.258.057c2.142 1.175 2.152 26.705 0 27.885 5.547-.495 10.163-4.224 11.947-9.29l.014-.04C27.723 17.168 28 15.616 28 14c0-1.638-.284-3.208-.8-4.668Z" fill="#D02027"/><path d="M19.295 9.332c-.548-4.378-1.895-8.1-4.038-9.275-.398-.034-.8-.054-1.207-.056L14 0C7.91 0 2.73 3.89.803 9.32A13.972 13.972 0 0 0 0 14a13.98 13.98 0 0 0 .795 4.652C2.713 24.096 7.9 28 13.999 28h.05c.407-.002.81-.022 1.208-.057 2.152-1.18 3.501-4.928 4.045-9.33.37-2.994.367-6.29-.007-9.28Z" fill="#DB2727"/><path d="M6.578 7.523a3.437 3.437 0 0 1 5.185-2.959 4.16 4.16 0 1 0 0 5.917 3.436 3.436 0 0 1-5.186-2.958ZM13.934 5.275l.855 1.393 1.589-.383-1.06 1.244.854 1.392-1.51-.624-1.06 1.244.127-1.63-1.51-.623 1.588-.383.127-1.63Z" fill="#F3F4F5"/></g><defs><clipPath id="a"><path fill="#fff" d="M0 0h28v28H0z"/></clipPath></defs></svg>