<svg width="28" height="28" fill="none" xmlns="http://www.w3.org/2000/svg"><g clip-path="url(#a)"><path d="M14 .875C8.444.875 3.72 4.331 1.794 9.188h24.412C24.281 4.33 19.556.874 14 .874Z" fill="#42ADE2"/><path d="M14 27.125c5.556 0 10.281-3.456 12.206-8.313H1.794C3.719 23.67 8.444 27.126 14 27.126Z" fill="#83BF4F"/><path d="M27.125 14a13.01 13.01 0 0 0-.613-3.938H1.488A13.008 13.008 0 0 0 .875 14c0 1.356.219 2.712.613 3.938h25.024A13.01 13.01 0 0 0 27.125 14Z" fill="#fff"/><path d="M26.381 9.625c-.044-.131-.131-.306-.175-.438H1.794c-.044.132-.132.307-.175.438-.044.131-.088.306-.132.438h25.025c-.043-.132-.087-.307-.13-.438ZM1.619 18.375c.043.131.13.306.175.438h24.412c.044-.132.131-.307.175-.438.044-.131.088-.306.131-.438H1.487c.044.132.088.307.132.438Z" fill="#C94747"/><path d="M8.925 7.569a1.867 1.867 0 0 1-1.881-1.881c0-1.05.831-1.882 1.881-1.882.262 0 .481.044.7.131A2.25 2.25 0 0 0 8.312 3.5a2.166 2.166 0 0 0-2.187 2.188c0 1.224.963 2.187 2.188 2.187a2.25 2.25 0 0 0 1.312-.438 1.814 1.814 0 0 1-.7.132ZM10.806 6.65l.175.481h.481l-.394.263.132.481-.394-.306-.394.306.175-.481-.394-.263h.482l.13-.481ZM12.688 6.65l.13.481h.526l-.394.263.131.481-.393-.306-.394.306.131-.481-.394-.263h.481l.175-.481ZM14.568 6.65l.132.481h.48l-.393.263.175.481-.394-.306-.437.306.175-.481-.394-.263h.481l.175-.481ZM16.406 6.65l.175.481h.482l-.394.263.131.481-.394-.306-.393.306.13-.481-.393-.263h.525l.131-.481ZM18.287 6.65l.131.481h.525l-.437.263.175.481-.394-.306-.394.306.132-.481-.394-.263h.481l.175-.481ZM12.688 5.075l.13.481h.526l-.394.263.131.481-.393-.306-.394.306.131-.481-.394-.263h.481l.175-.481ZM14.568 5.075l.132.481h.48l-.393.263.175.481-.394-.306-.437.306.175-.481-.394-.263h.481l.175-.481ZM16.406 5.075l.175.481h.482l-.394.263.131.481-.394-.306-.393.306.13-.481-.393-.263h.525l.131-.481ZM18.287 5.075l.131.481h.525l-.437.263.175.481-.394-.306-.394.306.132-.481-.394-.263h.481l.175-.481ZM14.568 3.5l.132.481h.48l-.393.263.175.481-.394-.306-.437.306.175-.481-.394-.263h.481l.175-.481ZM16.406 3.5l.175.481h.482l-.394.263.131.481-.394-.306-.393.306.13-.481-.393-.263h.525l.131-.481ZM18.287 3.5l.131.481h.525l-.437.263.175.481-.394-.306-.394.306.132-.481-.394-.263h.481l.175-.481Z" fill="#fff"/></g><defs><clipPath id="a"><path fill="#fff" d="M0 0h28v28H0z"/></clipPath></defs></svg>